<svg width="1600" height="1000" viewBox="0 0 1600 1000" fill="none" xmlns="http://www.w3.org/2000/svg">
  <defs>
    <linearGradient id="sky" x1="800" y1="0" x2="800" y2="1000" gradientUnits="userSpaceOnUse">
      <stop stop-color="#1C6E86"/>
      <stop offset="0.56" stop-color="#68A8B8"/>
      <stop offset="1" stop-color="#E9D6B7"/>
    </linearGradient>
    <linearGradient id="sea" x1="800" y1="410" x2="800" y2="820" gradientUnits="userSpaceOnUse">
      <stop stop-color="#2A7B94"/>
      <stop offset="1" stop-color="#123743"/>
    </linearGradient>
  </defs>
  <rect width="1600" height="1000" fill="url(#sky)"/>
  <path d="M0 540C192 500 364 520 548 560C746 604 938 600 1114 560C1306 516 1436 498 1600 526V1000H0V540Z" fill="url(#sea)"/>
  <path d="M0 734C160 710 340 722 510 770C680 818 852 828 1038 782C1224 736 1422 718 1600 750V1000H0V734Z" fill="#EEDCC1"/>
  <path d="M0 678C160 650 332 660 514 700C704 742 886 746 1066 704C1246 662 1428 654 1600 680" stroke="#F8F3EA" stroke-width="12" stroke-linecap="round"/>
  <g fill="#123743">
    <circle cx="690" cy="636" r="20"/>
    <path d="M654 774C658 706 664 664 690 654C718 666 724 708 728 774H654Z"/>
    <path d="M606 798C620 720 646 650 680 618L702 628C664 688 652 742 648 818L606 798Z"/>
    <circle cx="916" cy="632" r="20"/>
    <path d="M880 770C884 704 892 664 916 652C944 666 952 708 954 770H880Z"/>
    <path d="M968 810C956 726 940 666 908 620L928 612C968 662 988 734 1004 804L968 810Z"/>
  </g>
  <text x="800" y="170" text-anchor="middle" fill="#F8F3EA" font-family="Arial, sans-serif" font-size="54" font-weight="700">Tifawave hero placeholder</text>
  <text x="800" y="226" text-anchor="middle" fill="#F8F3EA" font-family="Arial, sans-serif" font-size="24">Replace with a real wide surf or hostel hero photo</text>
</svg>
